# This file uses centimeters as units for non-parametric coordinates.

v -0.306092 0.051048 -0.371094
v -0.306092 -0.385220 0.126038
v -0.306092 0.349346 -0.109344
v -0.306092 -0.086922 0.387817
v -0.435296 0.051048 -0.371094
v -0.435296 -0.385220 0.126038
v -0.435296 0.349346 -0.109344
v -0.435296 -0.086922 0.387817
v -0.368636 -1.491234 0.577560
v -0.306092 -0.788216 1.190063
v -0.435296 -0.788216 1.190063
v -0.435296 -1.491238 0.577545
v -0.306092 1.333233 -0.408096
v -0.306092 0.621059 -1.018387
v -0.435296 0.621059 -1.018387
v -0.365436 1.333233 -0.408096
v -0.368636 -3.737276 3.139038
v -0.306092 -3.020157 3.767853
v -0.435297 -3.020157 3.767853
v -0.435297 -3.737276 3.139038
v -0.306091 3.578209 -3.002350
v -0.306091 2.874069 -3.616028
v -0.435295 2.874069 -3.616028
v -0.365436 3.578209 -3.002350
v -0.435296 -0.138058 0.446304
v -0.306092 -0.138863 0.447235
v -0.306092 0.096619 -0.422852
v -0.435296 0.097099 -0.423386
v -0.327858 0.031380 0.493500
v -0.413531 0.031380 0.493500
v -0.413531 0.008759 0.519379
v -0.327858 0.008224 0.519989
v -0.327857 -0.035961 -0.449371
v -0.413530 -0.035961 -0.449371
v -0.413530 -0.014137 -0.477112
v -0.327857 -0.014458 -0.476761
v 0.000000 0.000000 0.085464
v 0.000000 0.060421 0.060425
v 0.000000 0.085449 -0.000015
v 0.000000 0.060421 -0.060410
v 0.000000 0.000000 -0.085449
v 0.000000 -0.060425 -0.060410
v 0.000000 -0.085449 -0.000015
v 0.000000 -0.060425 0.060425
v -0.578013 0.000000 0.085464
v -0.578013 0.060421 0.060425
v -0.578013 0.085449 -0.000015
v -0.578013 0.060421 -0.060410
v -0.578013 0.000000 -0.085449
v -0.578013 -0.060425 -0.060410
v -0.578013 -0.085453 -0.000015
v -0.578013 -0.060425 0.060425
v -0.153266 -0.037621 -0.487930
v -0.087123 -0.037621 -0.487930
v -0.153266 0.028519 -0.487930
v -0.087123 0.028519 -0.487930
v -0.153266 -0.037621 0.524139
v -0.087123 -0.037621 0.524139
v -0.153266 0.028519 0.524139
v -0.087123 0.028519 0.524139
v -0.336439 -0.002056 -0.437988
v -0.336439 -0.008598 -0.440704
v -0.336439 -0.011303 -0.447235
v -0.336439 -0.008598 -0.453766
v -0.336439 -0.002056 -0.456467
v -0.336439 0.004475 -0.453766
v -0.336439 0.007187 -0.447235
v -0.336439 0.004475 -0.440704
v -0.145847 -0.002056 -0.428696
v -0.145847 -0.015152 -0.434143
v -0.145847 -0.020576 -0.447235
v -0.145847 -0.015152 -0.460312
v -0.145847 -0.002056 -0.465744
v -0.145847 0.011040 -0.460312
v -0.145847 0.016460 -0.447235
v -0.145847 0.011040 -0.434143
v -0.329199 0.000820 0.502579
v -0.329199 -0.005714 0.499893
v -0.329199 -0.008419 0.493362
v -0.329199 -0.005714 0.486801
v -0.329199 0.000820 0.484100
v -0.329199 0.007359 0.486801
v -0.329199 0.010063 0.493362
v -0.329199 0.007359 0.499893
v -0.138607 0.000820 0.511871
v -0.138607 -0.012276 0.506454
v -0.138607 -0.017700 0.493362
v -0.138607 -0.012276 0.480255
v -0.138607 0.000820 0.474823
v -0.138607 0.013916 0.480255
v -0.138607 0.019344 0.493362
v -0.138607 0.013916 0.506454
vt 1.000000 0.000000
vt 1.000000 1.000000
vt 0.000000 1.000000
vt 0.000000 0.000000
vt 0.074060 0.925940
vt 0.072917 1.000000
vt 0.074060 0.000000
vt 0.079938 0.000000
vt 0.080788 1.000000
vt 0.080788 0.080788
vt 0.750000 0.000000
vt 0.875000 0.000000
vt 0.875000 1.000000
vt 0.750000 1.000000
vt 1.000000 0.000000
vt 1.000000 1.000000
vt 0.000000 0.000000
vt 0.125000 0.000000
vt 0.125000 1.000000
vt 0.000000 1.000000
vt 0.250000 0.000000
vt 0.250000 1.000000
vt 0.375000 0.000000
vt 0.375000 1.000000
vt 0.500000 0.000000
vt 0.500000 1.000000
vt 0.625000 0.000000
vt 0.625000 1.000000
vt 1.000000 0.500000
vt 0.853553 0.146447
vt 0.500000 0.000000
vt 0.500000 1.000000
vt 0.146447 0.146447
vt 0.000000 0.500000
vt 0.146447 0.853553
vt 0.853553 0.853553
vt 0.146447 0.853553
vt 0.000000 0.500000
vt 0.146447 0.146447
vt 0.853553 0.853553
vt 0.500000 0.000000
vt 0.853553 0.146447
vt 1.000000 0.500000
vt 0.500000 1.000000
vt 0.750000 0.000000
vt 0.625000 0.000000
vt 0.500000 0.000000
vt 0.375000 0.000000
vt 0.250000 0.000000
vt 0.125000 0.000000
vt -0.000000 0.000000
vt -0.000000 1.000000
vt 1.000000 0.000000
vt 0.875000 0.000000
vt 0.250450 0.500000
vt 0.323541 0.323541
vt 0.500000 0.250450
vt 0.500000 0.749550
vt 0.676459 0.323541
vt 0.749550 0.500000
vt 0.676459 0.676459
vt 0.323541 0.676459
vt 0.000000 0.000000
vt 1.000000 0.000000
vt 1.000000 1.000000
vt 0.000000 1.000000
vt 0.000000 0.000000
vt 1.000000 0.000000
vt 1.000000 1.000000
vt 0.000000 1.000000
vt 0.000000 0.000000
vt 1.000000 0.000000
vt 1.000000 1.000000
vt 0.000000 1.000000
vt 0.000000 0.000000
vt 1.000000 0.000000
vt 1.000000 1.000000
vt 0.000000 1.000000
vt 0.000000 0.000000
vt 1.000000 0.000000
vt 1.000000 1.000000
vt 0.000000 1.000000
vt 1.000000 0.000000
vt 1.000000 0.000000
vt 0.000000 0.000000
vt 0.000000 1.000000
vt 0.000000 0.000000
vt 1.000000 1.000000
vt 1.000000 0.000000
vt 0.000000 1.000000
vt 1.000000 1.000000
vt 0.000000 1.000000
vt 1.000000 1.000000
vt 1.000000 1.000000
vt 1.000000 1.000000
vt 1.000000 0.000000
vt 0.000000 0.000000
vt 0.000000 1.000000
vt 1.000000 0.000000
vt 1.000000 0.000000
vt 1.000000 0.000000
vt 0.000000 0.000000
vt 1.000000 1.000000
vt 1.000000 0.000000
vt 0.000000 0.000000
vt 0.000000 1.000000
vt 0.000000 1.000000
vt 0.000000 1.000000
vt 1.000000 1.000000
vt 1.000000 1.000000
vt 1.000000 0.000000
vt 0.000000 0.000000
vt 0.000000 1.000000
vt 0.000000 0.000000
vt 1.000000 0.000000
vt 1.000000 0.000000
vt 0.000000 0.000000
vt 1.000000 0.000000
vt 1.000000 1.000000
vt 1.000000 1.000000
vt 1.000000 0.000000
vt 1.000000 1.000000
vt 0.000000 1.000000
vt 0.000000 1.000000
vt 1.000000 1.000000
vt 0.000000 1.000000
vt 0.000000 0.000000
vt 0.000000 0.000000
vt 0.000000 1.000000
vt 0.000000 0.000000
vt 1.000000 0.000000
vt 1.000000 0.000000
vt 0.000000 0.000000
vt 1.000000 0.000000
vt 1.000000 1.000000
vt 1.000000 1.000000
vt 1.000000 0.000000
vt 1.000000 1.000000
vt 0.000000 1.000000
vt 0.000000 1.000000
vt 1.000000 1.000000
vt 0.000000 1.000000
vt 0.000000 0.000000
vt 0.000000 0.000000
vt 0.000000 1.000000
vt 1.000000 1.000000
vt 1.000000 0.000000
vt 0.074060 0.000000
vt 0.072917 1.000000
vt 0.000000 0.000000
vt 0.000000 1.000000
vt 0.080788 1.000000
vt 0.079938 0.000000
vt 0.000000 0.000000
vt 0.000000 1.000000
vt 0.000000 1.000000
vt 0.000000 0.000000
vt 1.000000 1.000000
vt 1.000000 1.000000
vt 0.000000 1.000000
vt 0.072917 1.000000
vt 0.074060 0.000000
vt 0.000000 0.000000
vt 0.000000 0.000000
vt 0.000000 1.000000
vt 0.000000 1.000000
vt 0.000000 0.000000
vt 0.000000 0.000000
vt 0.080788 1.000000
vt 0.000000 1.000000
vt 0.079938 0.000000
vt 0.080788 1.000000
vt 1.000000 0.000000
vt 0.000000 0.000000
vt 0.079938 0.000000
vt 1.000000 0.000000
vt 1.000000 1.000000
vt 0.000000 1.000000
vt 0.000000 0.000000
vt 0.000000 0.000000
vt 1.000000 0.000000
vt 1.000000 1.000000
vt 0.000000 1.000000
vt 0.000000 0.000000
vt 1.000000 0.000000
vt 1.000000 1.000000
vt 0.000000 1.000000
vt 0.000000 0.000000
vt 1.000000 0.000000
vt 1.000000 1.000000
vt 0.000000 1.000000
vt 0.000000 0.000000
vt 1.000000 0.000000
vt 1.000000 1.000000
vt 0.000000 1.000000
vt 0.000000 0.000000
vt 1.000000 0.000000
vt 1.000000 1.000000
vt 0.000000 1.000000
vt 0.625000 1.000000
vt 0.750000 1.000000
vt 0.500000 1.000000
vt 0.625000 1.000000
vt 0.375000 1.000000
vt 0.500000 1.000000
vt 0.250000 1.000000
vt 0.375000 1.000000
vt 0.125000 1.000000
vt 0.250000 1.000000
vt 0.125000 1.000000
vt 0.875000 1.000000
vt 1.000000 1.000000
vt 0.750000 1.000000
vt 0.875000 1.000000
vt 0.853553 0.853553
vt 1.000000 0.500000
vt 0.853553 0.146447
vt 0.146447 0.853553
vt 0.853553 0.146447
vt 0.500000 0.000000
vt 0.146447 0.146447
vt 0.146447 0.853553
vt 0.146447 0.146447
vt 0.000000 0.500000
vt 0.146447 0.853553
vt 0.500000 1.000000
vt 0.853553 0.853553
vt 0.146447 0.853553
vt 0.750000 0.000000
vt 0.625000 0.000000
vt 0.625000 1.000000
vt 0.750000 1.000000
vt 0.625000 0.000000
vt 0.500000 0.000000
vt 0.500000 1.000000
vt 0.625000 1.000000
vt 0.500000 0.000000
vt 0.375000 0.000000
vt 0.375000 1.000000
vt 0.500000 1.000000
vt 0.375000 0.000000
vt 0.250000 0.000000
vt 0.250000 1.000000
vt 0.375000 1.000000
vt 0.250000 0.000000
vt 0.125000 0.000000
vt 0.125000 1.000000
vt 0.250000 1.000000
vt 0.125000 0.000000
vt -0.000000 0.000000
vt -0.000000 1.000000
vt 0.125000 1.000000
vt 1.000000 0.000000
vt 0.875000 0.000000
vt 0.875000 1.000000
vt 1.000000 1.000000
vt 0.875000 0.000000
vt 0.750000 0.000000
vt 0.750000 1.000000
vt 0.875000 1.000000
vt 0.250450 0.500000
vt 0.323541 0.323541
vt 0.500000 0.250450
vt 0.500000 0.749550
vt 0.500000 0.250450
vt 0.676459 0.323541
vt 0.749550 0.500000
vt 0.500000 0.749550
vt 0.749550 0.500000
vt 0.676459 0.676459
vt 0.500000 0.749550
vt 0.323541 0.676459
vt 0.250450 0.500000
vt 0.500000 0.749550
vt 0.853553 0.853553
vt 1.000000 0.500000
vt 0.853553 0.146447
vt 0.146447 0.853553
vt 0.853553 0.146447
vt 0.500000 0.000000
vt 0.146447 0.146447
vt 0.146447 0.853553
vt 0.146447 0.146447
vt 0.000000 0.500000
vt 0.146447 0.853553
vt 0.500000 1.000000
vt 0.853553 0.853553
vt 0.146447 0.853553
vn 1.000000 0.000000 0.000000
vn 1.000000 -0.000000 0.000000
vn 1.000000 -0.000000 0.000000
vn 1.000000 -0.000000 0.000000
vn -1.000000 0.000000 0.000000
vn -1.000000 0.000000 0.000000
vn -1.000000 0.000000 0.000000
vn -1.000000 0.000000 0.000000
vn 0.000000 -0.751637 -0.659578
vn 0.000000 -0.751637 -0.659578
vn 0.000000 -0.751637 -0.659578
vn 0.000000 -0.751637 -0.659578
vn 0.000000 -0.659300 0.751880
vn 0.000000 -0.659300 0.751880
vn 0.000000 -0.659300 0.751880
vn 0.000000 -0.659300 0.751880
vn 0.000000 0.751637 0.659578
vn 0.000000 0.751637 0.659578
vn 0.000000 0.751637 0.659578
vn 0.000000 0.751637 0.659578
vn 0.000000 0.657025 -0.753869
vn 0.000000 0.657025 -0.753869
vn 0.000000 0.657025 -0.753869
vn 0.000000 0.657025 -0.753869
vn 1.000000 0.000000 0.000000
vn 1.000000 0.000000 0.000000
vn 1.000000 0.000000 0.000000
vn 1.000000 0.000000 0.000000
vn 0.997452 -0.066721 -0.025270
vn 0.997452 -0.066721 -0.025270
vn 0.997452 -0.066721 -0.025270
vn 0.000000 0.752899 0.658136
vn 0.000000 0.752899 0.658136
vn 0.000000 0.752899 0.658136
vn 0.000000 0.752899 0.658136
vn -1.000000 0.000000 0.000000
vn -1.000000 0.000000 0.000000
vn -1.000000 0.000000 0.000000
vn -1.000000 0.000000 0.000000
vn -1.000000 0.000000 0.000000
vn -1.000000 0.000000 0.000000
vn -1.000000 0.000000 0.000000
vn 0.000001 -0.377938 -0.925831
vn 0.000001 -0.377938 -0.925831
vn 0.000001 -0.377938 -0.925831
vn 0.000001 -0.377938 -0.925831
vn 1.000000 0.000000 0.000000
vn 1.000000 0.000000 0.000000
vn 1.000000 0.000000 0.000000
vn 1.000000 0.000000 0.000000
vn 1.000000 0.000000 0.000000
vn 1.000000 0.000000 0.000000
vn 1.000000 0.000000 0.000000
vn 0.000000 -0.750491 -0.660881
vn 0.000000 -0.750491 -0.660881
vn 0.000000 -0.750491 -0.660881
vn 0.000000 -0.750491 -0.660881
vn -0.997676 0.053127 -0.042671
vn -0.997676 0.053127 -0.042671
vn -0.997676 0.053127 -0.042671
vn -0.997676 0.053127 -0.042671
vn -0.997237 0.055752 0.049095
vn -0.997237 0.055752 0.049095
vn -0.997237 0.055752 0.049095
vn 0.000000 0.290555 0.956858
vn 0.000000 0.290555 0.956858
vn 0.000000 0.290555 0.956858
vn 0.000000 0.290555 0.956858
vn 0.997808 -0.049890 -0.043471
vn 0.997808 -0.049890 -0.043471
vn 0.997808 -0.049890 -0.043471
vn 0.997808 -0.049890 -0.043471
vn 0.000000 0.755999 0.654573
vn 0.000000 0.755999 0.654573
vn 0.000000 0.755999 0.654573
vn 0.000000 0.755999 0.654573
vn -1.000000 0.000000 0.000000
vn -1.000000 0.000000 0.000000
vn -1.000000 0.000000 0.000000
vn -1.000000 0.000000 0.000000
vn 0.000001 -0.751888 -0.659291
vn 0.000001 -0.751888 -0.659291
vn 0.000001 -0.751888 -0.659291
vn 0.000001 -0.751888 -0.659291
vn 1.000000 0.000000 0.000000
vn 1.000000 0.000000 0.000000
vn 1.000000 0.000000 0.000000
vn 1.000000 0.000000 0.000000
vn 0.000000 -0.755439 -0.655219
vn 0.000000 -0.755439 -0.655219
vn 0.000000 -0.755439 -0.655219
vn 0.000000 -0.755439 -0.655219
vn -0.997226 0.056257 0.048738
vn -0.997226 0.056257 0.048738
vn -0.997226 0.056257 0.048738
vn -0.997226 0.056257 0.048738
vn -0.000001 0.756173 0.654372
vn -0.000001 0.756173 0.654372
vn -0.000001 0.756173 0.654372
vn -0.000001 0.756173 0.654372
vn 0.000000 0.752899 0.658136
vn 0.000000 0.752899 0.658136
vn 0.000000 0.752899 0.658136
vn 0.000000 0.752899 0.658136
vn -0.000158 -0.786245 -0.617915
vn -0.000158 -0.786245 -0.617915
vn -0.000158 -0.786245 -0.617915
vn -0.000158 -0.786245 -0.617915
vn 0.000000 0.666195 -0.745778
vn 0.000000 0.666195 -0.745778
vn 0.000000 0.666195 -0.745778
vn 0.000000 0.666195 -0.745778
vn -0.990717 0.102352 0.089469
vn -0.990717 0.102352 0.089469
vn -0.990717 0.102352 0.089469
vn -0.990717 0.102352 0.089469
vn -0.009120 -0.444397 0.895783
vn -0.009120 -0.444397 0.895783
vn -0.009120 -0.444397 0.895783
vn -0.009120 -0.444397 0.895783
vn 0.990717 0.102352 0.089470
vn 0.990717 0.102352 0.089470
vn 0.990717 0.102352 0.089470
vn 0.990717 0.102352 0.089470
vn 0.000000 -0.668724 0.743510
vn 0.000000 -0.668724 0.743510
vn 0.000000 -0.668724 0.743510
vn 0.000000 -0.668724 0.743510
vn -0.983488 -0.138029 -0.117046
vn -0.983488 -0.138029 -0.117046
vn -0.983488 -0.138029 -0.117046
vn -0.983488 -0.138029 -0.117046
vn 0.005468 0.435733 -0.900059
vn 0.005468 0.435733 -0.900059
vn 0.005468 0.435733 -0.900059
vn 0.005468 0.435733 -0.900059
vn 0.983488 -0.138053 -0.117015
vn 0.983488 -0.138053 -0.117015
vn 0.983488 -0.138053 -0.117015
vn 0.983488 -0.138053 -0.117015
vn 0.000000 0.000000 1.000000
vn 0.000000 0.707107 0.707107
vn 0.000000 0.000000 1.000000
vn 0.000000 0.707107 0.707107
vn 0.000000 0.707107 0.707107
vn 0.000000 1.000000 0.000000
vn 0.000000 0.707107 0.707107
vn 0.000000 1.000000 0.000000
vn 0.000000 1.000000 0.000000
vn 0.000000 0.707107 -0.707107
vn 0.000000 1.000000 0.000000
vn 0.000000 0.707107 -0.707107
vn 0.000000 0.707107 -0.707107
vn 0.000000 0.000000 -1.000000
vn 0.000000 0.707107 -0.707107
vn 0.000000 0.000000 -1.000000
vn 0.000000 0.000000 -1.000000
vn 0.000000 -0.707107 -0.707107
vn 0.000000 0.000000 -1.000000
vn 0.000000 -0.707107 -0.707107
vn 0.000000 -0.707107 -0.707107
vn 0.000000 -1.000000 0.000000
vn 0.000000 -0.707107 -0.707107
vn 0.000000 -1.000000 0.000000
vn 0.000000 -1.000000 0.000000
vn 0.000000 -0.707107 0.707107
vn 0.000000 -1.000000 0.000000
vn 0.000000 -0.707107 0.707107
vn 0.000000 -0.707107 0.707107
vn 0.000000 0.000000 1.000000
vn 0.000000 -0.707107 0.707107
vn 0.000000 0.000000 1.000000
vn 1.000000 0.000000 0.000000
vn 1.000000 0.000000 0.000000
vn 1.000000 0.000000 0.000000
vn 1.000000 0.000000 0.000000
vn 1.000000 0.000000 0.000000
vn 1.000000 0.000000 0.000000
vn 1.000000 0.000000 0.000000
vn 1.000000 0.000000 0.000000
vn 1.000000 0.000000 0.000000
vn 1.000000 0.000000 0.000000
vn 1.000000 0.000000 0.000000
vn 1.000000 0.000000 0.000000
vn 1.000000 0.000000 0.000000
vn 1.000000 0.000000 0.000000
vn -1.000000 -0.000001 0.000000
vn -1.000000 0.000000 0.000000
vn -1.000000 0.000000 0.000000
vn -1.000000 0.000000 0.000000
vn -1.000000 0.000000 0.000000
vn -1.000000 0.000000 0.000000
vn -1.000000 0.000000 0.000000
vn -1.000000 0.000000 0.000000
vn -1.000000 0.000000 0.000000
vn -1.000000 -0.000001 0.000000
vn -1.000000 0.000000 0.000000
vn -1.000000 0.000000 0.000000
vn -1.000000 0.000000 0.000000
vn -1.000000 0.000000 0.000000
vn 0.000000 0.000000 -1.000000
vn 0.000000 0.000000 -1.000000
vn 0.000000 0.000000 -1.000000
vn 0.000000 0.000000 -1.000000
vn 0.000000 0.000000 1.000000
vn 0.000000 0.000000 1.000000
vn 0.000000 0.000000 1.000000
vn 0.000000 0.000000 1.000000
vn 0.000000 -1.000000 0.000000
vn 0.000000 -1.000000 0.000000
vn 0.000000 -1.000000 0.000000
vn 0.000000 -1.000000 0.000000
vn 1.000000 0.000000 0.000000
vn 1.000000 0.000000 0.000000
vn 1.000000 0.000000 0.000000
vn 1.000000 0.000000 0.000000
vn 0.000000 1.000000 0.000000
vn 0.000000 1.000000 0.000000
vn 0.000000 1.000000 0.000000
vn 0.000000 1.000000 0.000000
vn -1.000000 0.000000 0.000000
vn -1.000000 0.000000 0.000000
vn -1.000000 0.000000 0.000000
vn -1.000000 0.000000 0.000000
vn -0.048616 0.000000 0.998818
vn -0.048616 -0.706271 0.706270
vn -0.048616 0.000000 0.998818
vn -0.048616 -0.706271 0.706270
vn -0.048616 -0.706271 0.706270
vn -0.048615 -0.998818 0.000000
vn -0.048616 -0.706271 0.706270
vn -0.048615 -0.998818 0.000000
vn -0.048615 -0.998818 0.000000
vn -0.048615 -0.706270 -0.706271
vn -0.048615 -0.998818 0.000000
vn -0.048615 -0.706271 -0.706270
vn -0.048615 -0.706270 -0.706271
vn -0.048615 0.000000 -0.998818
vn -0.048615 -0.706271 -0.706270
vn -0.048615 0.000000 -0.998818
vn -0.048615 0.000000 -0.998818
vn -0.048615 0.706271 -0.706270
vn -0.048615 0.000000 -0.998818
vn -0.048615 0.706270 -0.706271
vn -0.048615 0.706271 -0.706270
vn -0.048616 0.998818 0.000000
vn -0.048615 0.706270 -0.706271
vn -0.048616 0.998818 0.000000
vn -0.048616 0.998818 0.000000
vn -0.048616 0.706270 0.706271
vn -0.048616 0.998818 0.000000
vn -0.048616 0.706270 0.706271
vn -0.048616 0.706270 0.706271
vn -0.048616 0.000000 0.998818
vn -0.048616 0.706270 0.706271
vn -0.048616 0.000000 0.998818
vn -1.000000 0.000000 0.000000
vn -1.000000 0.000000 0.000000
vn -1.000000 0.000000 0.000000
vn -1.000000 0.000000 0.000000
vn -1.000000 0.000000 0.000000
vn -1.000000 0.000000 0.000000
vn -1.000000 0.000000 0.000000
vn -1.000000 0.000000 0.000000
vn -1.000000 0.000000 0.000000
vn -1.000000 0.000000 0.000000
vn -1.000000 0.000000 0.000000
vn -1.000000 0.000000 0.000000
vn -1.000000 0.000000 0.000000
vn -1.000000 0.000000 0.000000
vn 1.000000 0.000000 0.000000
vn 1.000000 0.000000 0.000000
vn 1.000000 0.000000 0.000000
vn 1.000000 0.000000 0.000000
vn 1.000000 0.000000 0.000000
vn 1.000000 0.000000 0.000000
vn 1.000000 0.000000 0.000000
vn 1.000000 0.000000 0.000000
vn 1.000000 0.000000 0.000000
vn 1.000000 0.000000 0.000000
vn 1.000000 0.000000 0.000000
vn 1.000000 0.000000 0.000000
vn 1.000000 0.000000 0.000000
vn 1.000000 0.000000 0.000000
vn -0.048616 0.000000 0.998818
vn -0.048616 -0.706271 0.706270
vn -0.048616 0.000000 0.998818
vn -0.048616 -0.706271 0.706270
vn -0.048616 -0.706271 0.706270
vn -0.048615 -0.998818 0.000000
vn -0.048616 -0.706271 0.706270
vn -0.048615 -0.998818 0.000000
vn -0.048615 -0.998818 0.000000
vn -0.048615 -0.706270 -0.706271
vn -0.048615 -0.998818 0.000000
vn -0.048615 -0.706271 -0.706270
vn -0.048615 -0.706270 -0.706271
vn -0.048615 0.000000 -0.998818
vn -0.048615 -0.706271 -0.706270
vn -0.048615 0.000000 -0.998818
vn -0.048615 0.000000 -0.998818
vn -0.048615 0.706271 -0.706270
vn -0.048615 0.000000 -0.998818
vn -0.048615 0.706270 -0.706271
vn -0.048615 0.706271 -0.706270
vn -0.048616 0.998818 0.000000
vn -0.048615 0.706270 -0.706271
vn -0.048616 0.998818 0.000000
vn -0.048616 0.998818 0.000000
vn -0.048616 0.706270 0.706271
vn -0.048616 0.998818 0.000000
vn -0.048616 0.706270 0.706271
vn -0.048616 0.706270 0.706271
vn -0.048616 0.000000 0.998818
vn -0.048616 0.706270 0.706271
vn -0.048616 0.000000 0.998818
vn -1.000000 0.000000 0.000000
vn -1.000000 0.000000 0.000000
vn -1.000000 0.000000 0.000000
vn -1.000000 0.000000 0.000000
vn -1.000000 0.000000 0.000000
vn -1.000000 0.000000 0.000000
vn -1.000000 0.000000 0.000000
vn -1.000000 0.000000 0.000000
vn -1.000000 0.000000 0.000000
vn -1.000000 0.000000 0.000000
vn -1.000000 0.000000 0.000000
vn -1.000000 0.000000 0.000000
vn -1.000000 0.000000 0.000000
vn -1.000000 0.000000 0.000000
vn 1.000000 0.000000 0.000000
vn 1.000000 0.000000 0.000000
vn 1.000000 0.000000 0.000000
vn 1.000000 0.000000 0.000000
vn 1.000000 0.000000 0.000000
vn 1.000000 0.000000 0.000000
vn 1.000000 0.000000 0.000000
vn 1.000000 0.000000 0.000000
vn 1.000000 0.000000 0.000000
vn 1.000000 0.000000 0.000000
vn 1.000000 0.000000 0.000000
vn 1.000000 0.000000 0.000000
vn 1.000000 0.000000 0.000000
vn 1.000000 0.000000 0.000000
f 1/1/1 3/2/2 2/4/3
f 2/4/3 3/2/2 4/3/4
f 5/63/5 6/64/6 7/66/7
f 7/66/7 6/64/6 8/65/8
f 1/67/9 2/68/10 5/70/11
f 5/70/11 2/68/10 6/69/12
f 18/72/13 19/73/14 17/71/15
f 17/71/15 19/73/14 20/74/16
f 4/75/17 3/76/18 8/78/19
f 8/78/19 3/76/18 7/77/20
f 21/79/21 22/80/22 24/82/23
f 24/82/23 22/80/22 23/81/24
f 4/3/25 26/5/26 2/4/27
f 2/4/27 26/5/26 10/83/28
f 2/4/29 10/84/30 9/85/31
f 30/86/32 31/6/33 29/87/34
f 29/87/34 31/6/33 32/7/35
f 8/88/36 6/89/37 25/91/38
f 6/89/37 12/90/39 25/91/38
f 12/92/40 11/93/41 25/94/42
f 2/96/43 9/97/44 6/95/45
f 6/95/45 9/97/44 12/98/46
f 1/1/47 27/99/48 3/2/49
f 3/2/49 27/99/48 14/100/50
f 3/2/51 14/101/52 13/102/53
f 15/103/54 14/104/55 28/9/56
f 28/9/56 14/104/55 27/8/57
f 5/105/58 7/106/59 28/10/60
f 7/106/59 16/107/61 28/10/60
f 16/108/62 15/109/63 28/10/64
f 7/110/65 3/111/66 16/113/67
f 16/113/67 3/111/66 13/112/68
f 9/114/69 10/115/70 17/117/71
f 17/117/71 10/115/70 18/116/72
f 10/118/73 11/119/74 18/121/75
f 18/121/75 11/119/74 19/120/76
f 12/123/77 20/124/78 11/122/79
f 11/122/79 20/124/78 19/125/80
f 12/126/81 9/127/82 20/129/83
f 20/129/83 9/127/82 17/128/84
f 14/131/85 22/132/86 13/130/87
f 13/130/87 22/132/86 21/133/88
f 14/134/89 15/135/90 22/137/91
f 22/137/91 15/135/90 23/136/92
f 15/138/93 16/139/94 23/141/95
f 23/141/95 16/139/94 24/140/96
f 16/142/97 13/143/98 24/145/99
f 24/145/99 13/143/98 21/144/100
f 10/147/101 26/148/102 11/146/103
f 11/146/103 26/148/102 25/149/104
f 33/150/105 34/151/106 36/153/107
f 36/153/107 34/151/106 35/152/108
f 4/154/109 8/155/110 29/157/111
f 29/157/111 8/155/110 30/156/112
f 25/159/113 31/6/114 8/158/115
f 8/158/115 31/6/114 30/160/116
f 26/162/117 32/7/118 25/161/119
f 25/161/119 32/7/118 31/6/120
f 26/5/121 4/3/122 32/7/123
f 32/7/123 4/3/122 29/163/124
f 1/164/125 5/165/126 33/167/127
f 33/167/127 5/165/126 34/166/128
f 28/10/129 35/169/130 5/168/131
f 5/168/131 35/169/130 34/170/132
f 28/9/133 27/8/134 35/172/135
f 35/172/135 27/8/134 36/171/136
f 27/173/137 1/1/138 36/175/139
f 36/175/139 1/1/138 33/174/140
f 37/11/141 38/12/142 45/14/143
f 45/14/143 38/12/142 46/13/144
f 38/12/145 39/15/146 46/13/147
f 46/13/147 39/15/146 47/16/148
f 39/17/149 40/18/150 47/20/151
f 47/20/151 40/18/150 48/19/152
f 40/18/153 41/21/154 48/19/155
f 48/19/155 41/21/154 49/22/156
f 41/21/157 42/23/158 49/22/159
f 49/22/159 42/23/158 50/24/160
f 42/23/161 43/25/162 50/24/163
f 50/24/163 43/25/162 51/26/164
f 43/25/165 44/27/166 51/26/167
f 51/26/167 44/27/166 52/28/168
f 44/27/169 37/11/170 52/28/171
f 52/28/171 37/11/170 45/14/172
f 42/30/173 41/31/174 43/29/175
f 43/29/175 41/31/174 37/32/176
f 40/33/177 39/34/178 41/31/179
f 41/31/179 39/34/178 37/32/180
f 39/34/181 38/35/182 37/32/183
f 44/36/184 43/29/185 37/32/186
f 47/38/187 48/39/188 46/37/189
f 46/37/189 48/39/188 52/40/190
f 49/41/191 50/42/192 48/39/193
f 48/39/193 50/42/192 52/40/194
f 50/42/195 51/43/196 52/40/197
f 45/44/198 46/37/199 52/40/200
f 53/176/201 55/177/202 54/179/203
f 54/179/203 55/177/202 56/178/204
f 57/180/205 58/181/206 59/183/207
f 59/183/207 58/181/206 60/182/208
f 53/184/209 54/185/210 57/187/211
f 57/187/211 54/185/210 58/186/212
f 54/188/213 56/189/214 58/191/215
f 58/191/215 56/189/214 60/190/216
f 56/192/217 55/193/218 60/195/219
f 60/195/219 55/193/218 59/194/220
f 55/196/221 53/197/222 59/199/223
f 59/199/223 53/197/222 57/198/224
f 61/45/225 62/46/226 69/201/227
f 69/201/227 62/46/226 70/200/228
f 62/46/229 63/47/230 70/203/231
f 70/203/231 63/47/230 71/202/232
f 63/47/233 64/48/234 71/205/235
f 71/205/235 64/48/234 72/204/236
f 64/48/237 65/49/238 72/207/239
f 72/207/239 65/49/238 73/206/240
f 65/49/241 66/50/242 73/209/243
f 73/209/243 66/50/242 74/208/244
f 66/50/245 67/51/246 74/210/247
f 74/210/247 67/51/246 75/52/248
f 67/53/249 68/54/250 75/212/251
f 75/212/251 68/54/250 76/211/252
f 68/54/253 61/45/254 76/214/255
f 76/214/255 61/45/254 69/213/256
f 66/56/257 65/57/258 67/55/259
f 67/55/259 65/57/258 61/58/260
f 64/59/261 63/60/262 65/57/263
f 65/57/263 63/60/262 61/58/264
f 63/60/265 62/61/266 61/58/267
f 68/62/268 67/55/269 61/58/270
f 71/216/271 72/217/272 70/215/273
f 70/215/273 72/217/272 76/218/274
f 73/220/275 74/221/276 72/219/277
f 72/219/277 74/221/276 76/222/278
f 74/223/279 75/224/280 76/225/281
f 69/226/282 70/227/283 76/228/284
f 77/229/285 78/230/286 85/232/287
f 85/232/287 78/230/286 86/231/288
f 78/233/289 79/234/290 86/236/291
f 86/236/291 79/234/290 87/235/292
f 79/237/293 80/238/294 87/240/295
f 87/240/295 80/238/294 88/239/296
f 80/241/297 81/242/298 88/244/299
f 88/244/299 81/242/298 89/243/300
f 81/245/301 82/246/302 89/248/303
f 89/248/303 82/246/302 90/247/304
f 82/249/305 83/250/306 90/252/307
f 90/252/307 83/250/306 91/251/308
f 83/253/309 84/254/310 91/256/311
f 91/256/311 84/254/310 92/255/312
f 84/257/313 77/258/314 92/260/315
f 92/260/315 77/258/314 85/259/316
f 82/262/317 81/263/318 83/261/319
f 83/261/319 81/263/318 77/264/320
f 80/266/321 79/267/322 81/265/323
f 81/265/323 79/267/322 77/268/324
f 79/269/325 78/270/326 77/271/327
f 84/272/328 83/273/329 77/274/330
f 87/276/331 88/277/332 86/275/333
f 86/275/333 88/277/332 92/278/334
f 89/280/335 90/281/336 88/279/337
f 88/279/337 90/281/336 92/282/338
f 90/283/339 91/284/340 92/285/341
f 85/286/342 86/287/343 92/288/344
